<?xml version="1.0" encoding="utf-8"?>
<!-- Generator: Adobe Illustrator 26.0.1, SVG Export Plug-In . SVG Version: 6.00 Build 0)  -->
<svg version="1.1" id="Calque_1" xmlns="http://www.w3.org/2000/svg" xmlns:xlink="http://www.w3.org/1999/xlink" x="0px" y="0px"
	 viewBox="0 0 691.9 626.3" style="enable-background:new 0 0 691.9 626.3;" xml:space="preserve">
<style type="text/css">
	.st0{fill:#A0616A;}
	.st1{fill:#E6E6E6;}
	.st2{fill:#2F2E41;}
	.st3{fill:#3F3D56;}
	.st4{fill:#F2F2F2;}
	.st5{fill:#CACACA;}
	.st6{fill:#FFFFFF;}
	.st7{fill:#0EA2BD;}
</style>
<path class="st0" d="M484.5,117.8c0.7,4.9,5.2,8.3,10.1,7.7c0.5-0.1,0.9-0.2,1.4-0.3l19,25.5l16.3-5.1l-29.7-32.1
	c-1.5-3.8-5.4-6.2-9.5-5.7c-4.8,0.6-8.1,5-7.5,9.7c0,0,0,0,0,0C484.4,117.7,484.5,117.7,484.5,117.8z"/>
<path class="st1" d="M618.3,231.5c0,0-70.8-33-88.7-54.1l-32.1-39.8l16.3-13.3l30.2,34.7c-0.3,7.3,35.4,14.8,54.5,25.4L618.3,231.5z
	"/>
<polygon class="st0" points="635.8,610.1 621.9,610 615.3,556.5 635.8,556.5 "/>
<path class="st2" d="M636.2,624.5l-42.7,0V624c0-9.2,7.4-16.6,16.6-16.6h0l7.8-5.9l14.6,5.9l3.7,0L636.2,624.5z"/>
<polygon class="st0" points="602.6,597.8 589.1,601 570.5,550.3 590.5,545.6 "/>
<path class="st2" d="M606.4,611.8l-41.6,9.7l-0.1-0.5c-2.1-8.9,3.5-17.9,12.4-20l0,0l6.3-7.5l15.5,2.5l3.6-0.8L606.4,611.8z"/>
<path class="st3" d="M2,148.2V69.3c0-5.1,4.2-9.3,9.3-9.3h102.2v-2H11.3C5.1,58,0,63.1,0,69.3v78.9L2,148.2z"/>
<path class="st3" d="M9.1,338.1c-4.2-1-7.1-4.7-7.1-9v-78.9H0V329c0,5.2,3.6,9.8,8.6,11c0.8,0.2,1.7,0.3,2.5,0.3h102.4v-2H11.2
	C10.5,338.3,9.8,338.2,9.1,338.1z"/>
<path class="st3" d="M467,250.2V329c0,5.1-4.2,9.3-9.3,9.3H355.5v2h102.2c6.2,0,11.3-5.1,11.3-11.3v-78.9H467z"/>
<path class="st3" d="M465,61.1c0.5,0.3,1,0.6,1.5,1c2.2,1.7,3.5,4.4,3.5,7.3v78.9h2V69.3c0-3.4-1.6-6.7-4.3-8.8
	c-0.6-0.5-1.2-0.8-1.8-1.2c-1.6-0.8-3.4-1.3-5.2-1.3H358.5v2h102.2C462.2,60,463.7,60.4,465,61.1z"/>
<path class="st2" d="M647.8,350l-86.4,4.3l-6,29v25.8l-3.7,96.2l25.7,75H598l-2.1-9.5l0,0c2.3-3.3,2.5-7.6,0.3-11l-1.7-2.6
	l-2.7-11.3l-6-42l25.7-94.7l3.3,172.7h22.4l3.3-3.7c3.7-4.3,4.2-10.5,1-15.3l0,0v-4.2l-2.6-14.8l24.7-183.7L647.8,350z"/>
<path class="st1" d="M610.5,169.9l-28.2,1.4l-3.2,13.4l-20.5,15.7c-9.4,7.2-14,19.2-11.7,30.8l11.3,57.7l-0.7,36.1l1.6,14.8
	l-0.1,2.2l-2.5,2.1c-3.5,2.9-4.6,7.8-2.5,11.9l0,0c0,0-12.4,26.7,5.5,28.1s28.9-17.2,46-10c17.1,7.2,32.3,8.1,37,0
	s18.9-6.2,20.6-13.2s-7-15-8.1-25.5s-4.2-59.5-4.2-59.5l8.4-48.1c2.4-14-4.7-27.9-17.4-34.1L615,180.5L610.5,169.9z"/>
<path class="st0" d="M463.7,320.6c2.4-5.1,8.3-7.4,13.5-5.2c0.5,0.2,1,0.5,1.4,0.8l29-21.6l16.1,10.8l-42.9,25.3
	c-2.9,3.7-7.9,5-12.2,3.1c-5-2.2-7.2-8-5-13c0,0,0,0,0,0C463.6,320.7,463.6,320.6,463.7,320.6z"/>
<path class="st1" d="M553.7,206.8c0,0-37.5,68.4-52.1,88.5l-11,8.6l1,28.2l24.7-13.6c0,0,49.8-37.7,48.3-53.4
	S553.7,206.8,553.7,206.8z"/>
<circle class="st0" cx="594" cy="141.1" r="26.6"/>
<path class="st2" d="M604.3,165.5c-7.6-0.3-8.3-2.3-16-2.5c-2.4-0.1-5.3-0.4-6.5-2.5c-0.8-1.5-0.5-3.4,0.3-5c0.9-1.5,1.7-3,2.4-4.6
	c1.4-4.2-0.8-8.8-5.1-10.2c-0.9-0.3-1.9-0.5-2.9-0.4c-2.3,0.1-4.5,1.2-6.8,1.4c-3.2,0.3-10.2-10.2-8.7-13.1c1.4-2.8,4.3-4.8,4.7-7.9
	c0.3-2-0.5-4-0.6-6c-0.2-3,7.5,3.8,6.1,1.1c-3.4-6.6,28.9-14.7,34.2-6.5c2,3.1,5.5,2.9,8.7,4.7c2.1,1.2,7.3,5.4,8.5,8
	c1.1,2.6,1.6,5.5,1.5,8.4c0,13.3-2,25.6-12.7,33.4"/>
<path class="st4" d="M471.5,618.4c-14.6,1.3-29.1-4.1-39.3-14.6c-6.6-6.9-11.1-15.9-15.5-24.5c-1.3-2.5-2.6-5.1-3.9-7.6
	c-3.1-5.6-2.4-12.4,1.6-17.3c3.9-4.9,10.3-7,16.3-5.2l0.6,0.2l5.7,22.4c0.9-3.3,2.7-10.9,3.9-18.3l0.1-0.6l0.6,0.3
	c6,2.7,11.6,6.1,16.8,10.1c18.5,14.8,29.5,37,30.1,60.6l0,0.7L471.5,618.4z"/>
<path class="st5" d="M690.7,626L412,626.3c-0.7,0-1.2-0.5-1.2-1.2c0-0.7,0.5-1.2,1.2-1.2l278.8-0.3c0.7,0,1.2,0.5,1.2,1.2
	S691.4,626,690.7,626C690.7,626,690.7,626,690.7,626z"/>
<path class="st1" d="M159.5,422.6c-14.4,0-26.2-11.7-26.2-26.2s11.7-26.2,26.2-26.2s26.2,11.7,26.2,26.2l0,0
	C185.6,410.9,173.9,422.6,159.5,422.6z"/>
<path class="st6" d="M169.8,393.8H162v-7.7c0-1.4-1.2-2.6-2.6-2.6c-1.4,0-2.6,1.2-2.6,2.6v7.7h-7.7c-1.4,0-2.6,1.2-2.6,2.6
	c0,1.4,1.2,2.6,2.6,2.6h7.7v7.7c0,1.4,1.2,2.6,2.6,2.6c1.4,0,2.6-1.2,2.6-2.6V399h7.7c1.4,0,2.6-1.2,2.6-2.6
	C172.4,395,171.2,393.8,169.8,393.8L169.8,393.8z"/>
<path class="st1" d="M236,422.6c-14.4,0-26.2-11.7-26.2-26.2s11.7-26.2,26.2-26.2s26.2,11.7,26.2,26.2l0,0
	C262.2,410.9,250.4,422.6,236,422.6z"/>
<path class="st6" d="M246.3,393.8h-20.6c-1.4,0-2.6,1.2-2.6,2.6c0,1.4,1.2,2.6,2.6,2.6h20.6c1.4,0,2.6-1.2,2.6-2.6
	C248.9,395,247.7,393.8,246.3,393.8z"/>
<path class="st1" d="M312.5,422.6c-14.4,0-26.2-11.7-26.2-26.2s11.7-26.2,26.2-26.2s26.2,11.7,26.2,26.2l0,0
	C338.7,410.9,327,422.6,312.5,422.6z"/>
<path class="st6" d="M327.3,395.2l-7.4-10.8c-0.7-1-2.1-1.3-3.1-0.6c-1,0.7-1.3,2.1-0.6,3.1l4.8,7h-18.8c-1.4,0-2.6,1.2-2.6,2.6
	c0,1.4,1.2,2.6,2.6,2.6l0,0h19l-5,7.3c-0.7,1-0.4,2.4,0.6,3.1c1,0.7,2.4,0.4,3.1-0.6l7.4-10.8C327.8,397.1,327.8,396.1,327.3,395.2z
	"/>
<circle class="st7" cx="236" cy="27.8" r="27.8"/>
<path class="st6" d="M232.2,42.2c-1,0-1.9-0.5-2.5-1.2l-7.6-10.1c-1-1.4-0.8-3.3,0.6-4.3c1.4-1,3.3-0.8,4.3,0.6c0,0,0,0,0,0l5,6.6
	l12.7-19.1c0.9-1.4,2.9-1.8,4.3-0.9c1.4,0.9,1.8,2.9,0.9,4.3c0,0,0,0,0,0l-15.2,22.7C234.2,41.7,233.3,42.2,232.2,42.2
	C232.3,42.2,232.2,42.2,232.2,42.2z"/>
<image style="overflow:visible;" width="1200" height="580" xlink:href="extra/62752a190487d306faa687cd_spectra home (2).png"  transform="matrix(0.402 0 0 0.402 2 94.7821)">
</image>
</svg>
